<!DOCTYPE svg PUBLIC "-//W3C//DTD SVG 1.1//EN" "http://www.w3.org/Graphics/SVG/1.1/DTD/svg11.dtd">
<!-- Uploaded to: SVG Repo, www.svgrepo.com, Transformed by: SVG Repo Mixer Tools -->
<svg version="1.1" id="Uploaded to svgrepo.com" xmlns="http://www.w3.org/2000/svg" xmlns:xlink="http://www.w3.org/1999/xlink" width="800px" height="800px" viewBox="0 0 32 32" xml:space="preserve" fill="#000000">
<g id="SVGRepo_bgCarrier" stroke-width="0"/>
<g id="SVGRepo_tracerCarrier" stroke-linecap="round" stroke-linejoin="round"/>
<g id="SVGRepo_iconCarrier"> <style type="text/css"> .puchipuchi_een{fill:#ffffff;} </style> <path class="puchipuchi_een" d="M6,11h4.78c0.549-0.609,1.337-1,2.22-1h8V5c0-1.1-0.9-2-2-2H3C1.9,3,1,3.9,1,5v11c0,1.1,0.9,2,2,2h4 l3,3v-8H6c-0.552,0-1-0.448-1-1S5.448,11,6,11z M6,7h10c0.552,0,1,0.448,1,1s-0.448,1-1,1H6C5.448,9,5,8.552,5,8S5.448,7,6,7z M29,11H13c-1.1,0-2,0.9-2,2v11c0,1.1,0.9,2,2,2h5l3,3l3-3h5c1.1,0,2-0.9,2-2V13C31,11.9,30.1,11,29,11z M26,21H16 c-0.552,0-1-0.448-1-1s0.448-1,1-1h10c0.552,0,1,0.448,1,1S26.552,21,26,21z M26,17H16c-0.552,0-1-0.448-1-1s0.448-1,1-1h10 c0.552,0,1,0.448,1,1S26.552,17,26,17z"/> </g>
</svg>